<?xml version="1.0" encoding="UTF-8" standalone="no"?>
<svg
   width="16"
   height="16"
   version="1.1"
   id="svg13"
   sodipodi:docname="folder-activities-closed-symbolic.svg"
   inkscape:version="1.2.2 (b0a8486541, 2022-12-01)"
   xmlns:inkscape="http://www.inkscape.org/namespaces/inkscape"
   xmlns:sodipodi="http://sodipodi.sourceforge.net/DTD/sodipodi-0.dtd"
   xmlns="http://www.w3.org/2000/svg"
   xmlns:svg="http://www.w3.org/2000/svg">
  <sodipodi:namedview
     id="namedview15"
     pagecolor="#ffffff"
     bordercolor="#000000"
     borderopacity="0.25"
     inkscape:showpageshadow="2"
     inkscape:pageopacity="0.0"
     inkscape:pagecheckerboard="0"
     inkscape:deskcolor="#d1d1d1"
     showgrid="false"
     inkscape:zoom="12.3125"
     inkscape:cx="14.172589"
     inkscape:cy="10.598985"
     inkscape:window-width="1569"
     inkscape:window-height="912"
     inkscape:window-x="26"
     inkscape:window-y="23"
     inkscape:window-maximized="0"
     inkscape:current-layer="svg13" />
  <defs
     id="defs3">
    <style
       id="current-color-scheme"
       type="text/css">.ColorScheme-Text{color:#363636}</style>
  </defs>
  <path
     d="M 3,6 A 2,2 0 0 0 1,8 2,2 0 0 0 3,10 2,2 0 0 0 5,8 2,2 0 0 0 3,6 Z M 3,7 A 1,1 0 0 1 4,8 1,1 0 0 1 3,9 1,1 0 0 1 2,8 1,1 0 0 1 3,7 Z"
     style="fill:currentColor"
     class="ColorScheme-Text"
     id="path5" />
  <path
     d="M 8,6 A 2,2 0 0 0 6,8 2,2 0 0 0 8,10 2,2 0 0 0 10,8 2,2 0 0 0 8,6 Z M 8,7 A 1,1 0 0 1 9,8 1,1 0 0 1 8,9 1,1 0 0 1 7,8 1,1 0 0 1 8,7 Z"
     style="fill:currentColor"
     class="ColorScheme-Text"
     id="path7" />
  <path
     d="m 13,6 a 2,2 0 0 0 -2,2 2,2 0 0 0 2,2 2,2 0 0 0 2,-2 2,2 0 0 0 -2,-2 z m 0,1 a 1,1 0 0 1 1,1 1,1 0 0 1 -1,1 1,1 0 0 1 -1,-1 1,1 0 0 1 1,-1 z"
     style="fill:currentColor"
     class="ColorScheme-Text"
     id="path9" />
  <ellipse
     style="fill:#363636;fill-opacity:1"
     id="path3085"
     cx="3.111913"
     cy="8.0073767"
     rx="1.1709232"
     ry="1.21181" />
  <ellipse
     style="fill:#363636;fill-opacity:1"
     id="path3085-3"
     cx="8.0940676"
     cy="7.9145379"
     rx="1.1709232"
     ry="1.21181" />
  <ellipse
     style="fill:#363636;fill-opacity:1"
     id="path3085-3-6"
     cx="13.051395"
     cy="7.9787436"
     rx="1.1709232"
     ry="1.21181" />
</svg>
